<?xml version="1.0" encoding="UTF-8" standalone="no"?>
<!DOCTYPE svg PUBLIC "-//W3C//DTD SVG 1.1//EN" "http://www.w3.org/Graphics/SVG/1.1/DTD/svg11.dtd">
<svg viewBox="0 0 119 119" version="1.1" xmlns="http://www.w3.org/2000/svg" xmlns:xlink="http://www.w3.org/1999/xlink" xml:space="preserve" xmlns:serif="http://www.serif.com/" style="fill-rule:evenodd;clip-rule:evenodd;stroke-linejoin:round;stroke-miterlimit:1.41421;">
    <g transform="matrix(1,0,0,1,-636.771,-1540.51)">
        <g transform="matrix(1,0,0,1,150.771,-374.491)">
            <path d="M545.5,1915C578.339,1915 605,1941.66 605,1974.5C605,2007.34 578.339,2034 545.5,2034C512.661,2034 486,2007.34 486,1974.5C486,1941.66 512.661,1915 545.5,1915ZM543.104,1925.29C570.042,1925.29 591.911,1947.16 591.911,1974.1C591.911,2001.03 570.042,2022.9 543.104,2022.9C516.167,2022.9 494.297,2001.03 494.297,1974.1C494.297,1947.16 516.167,1925.29 543.104,1925.29Z"/>
            <g transform="matrix(0.134601,2.39233e-05,-1.80543e-05,0.10158,479.998,1810.25)">
                <circle cx="512.902" cy="1947.27" r="59.5"/>
            </g>
            <path d="M554.136,1944.13C552.428,1943.57 550.604,1943.26 548.709,1943.26C543.485,1943.26 538.797,1945.58 535.615,1949.24C537.927,1942.37 544.421,1937.42 552.062,1937.42C553.884,1937.42 555.64,1937.7 557.29,1938.22L554.136,1944.13Z"/>
            <path d="M557.008,1954.52L545.739,1954.69L545.5,1948.81L580.198,1945.62L580.198,1997.27L557.008,1997.27L557.008,1954.52Z"/>
            <path d="M544.748,1985.76L544.748,1959.03L553.167,1959.03L553.167,1997.27L544.748,1997.27L538.284,1997.27L513.781,1967.73L513.781,1997.27L502.876,1997.27L502.876,1957.66L521.449,1957.66L544.748,1985.76Z"/>
        </g>
    </g>
</svg>
