<?xml version="1.0" encoding="UTF-8" standalone="no"?>
<!DOCTYPE svg PUBLIC "-//W3C//DTD SVG 1.1//EN" "http://www.w3.org/Graphics/SVG/1.1/DTD/svg11.dtd">
<svg width="100%" height="100%" viewBox="0 0 280 280" version="1.1" xmlns="http://www.w3.org/2000/svg" xmlns:xlink="http://www.w3.org/1999/xlink" xml:space="preserve" xmlns:serif="http://www.serif.com/" style="fill-rule:evenodd;clip-rule:evenodd;stroke-miterlimit:10;">
    <g transform="matrix(1,0,0,1,-1.9175,-1.9191)">
        <g id="Layer-1" serif:id="Layer 1">
            <g transform="matrix(1,0,0,1,141.732,33.1479)">
                <path d="M0,217.17C-59.997,217.17 -108.634,168.555 -108.634,108.585C-108.634,48.615 -59.997,0 0,0C59.997,0 108.634,48.615 108.634,108.585C108.634,168.555 59.997,217.17 0,217.17M0,-26.061C-74.363,-26.061 -134.646,34.222 -134.646,108.585C-134.646,182.947 -74.363,243.231 0,243.231C74.362,243.231 134.645,182.947 134.645,108.585C134.645,34.222 74.362,-26.061 0,-26.061" style="fill-rule:nonzero;"/>
            </g>
            <g transform="matrix(1,0,0,1,141.732,4.7371)">
                <path d="M0,273.99C-75.652,273.99 -136.98,212.656 -136.98,136.996C-136.98,61.336 -75.652,0.001 0,0.001C75.652,0.001 136.98,61.336 136.98,136.996C136.98,212.656 75.652,273.99 0,273.99M0,-2.818C-77.218,-2.818 -139.815,59.779 -139.815,136.996C-139.815,214.213 -77.218,276.808 0,276.808C77.218,276.808 139.814,214.213 139.814,136.996C139.814,59.779 77.218,-2.818 0,-2.818" style="fill:rgb(170,170,170);fill-rule:nonzero;"/>
            </g>
            <g transform="matrix(0.792687,0.609629,-0.609629,0.792687,0,0)">
                <path d="M189.358,138.175L189.358,155.785L208.948,155.785L208.948,151.561L194.638,151.561L194.638,148.762L208.129,148.762L208.129,144.881L194.638,144.881L194.638,142.32L208.842,142.32L208.842,138.175L189.358,138.175Z" style="fill:white;fill-rule:nonzero;"/>
            </g>
            <g transform="matrix(0.883082,0.469219,-0.469219,0.883082,0,0)">
                <path d="M188.292,179.92C188.424,178.785 188.768,178.679 192.121,178.679C194.946,178.679 195.315,178.943 195.315,180.897L195.315,181.557L195.104,181.557C194.365,180.765 193.731,180.58 191.566,180.58C188.134,180.58 186.92,180.66 185.784,180.976C183.963,181.452 183.118,182.693 183.118,184.937C183.118,187.894 184.411,188.818 188.556,188.818C191.593,188.818 192.781,188.712 193.547,188.395C194.391,188.052 194.893,187.603 195.289,186.785L195.474,186.785L195.474,188.501L199.962,188.501L199.962,180.976C199.962,178.706 199.698,177.755 198.906,176.911C197.85,175.854 196.9,175.67 192.807,175.67C189.058,175.67 186.893,175.907 185.811,176.409C184.359,177.122 183.751,178.099 183.619,179.92L188.292,179.92ZM191.408,183.221C193.388,183.221 194.127,183.247 194.418,183.353C194.946,183.537 195.236,183.907 195.236,184.409C195.236,185.518 194.312,185.834 191.012,185.834C188.504,185.834 187.791,185.544 187.791,184.541C187.791,183.511 188.556,183.221 191.408,183.221Z" style="fill:white;fill-rule:nonzero;"/>
            </g>
            <g transform="matrix(0.945566,0.325431,-0.325431,0.945566,0,0)">
                <path d="M171.45,213.748C171.477,215.2 171.794,216.071 172.559,216.758C173.668,217.788 175.226,218.052 179.767,218.052C187.001,218.052 188.691,217.233 188.691,213.669C188.691,210.87 187.318,209.814 183.701,209.788C178.896,209.761 178.077,209.735 177.312,209.682C176.572,209.629 176.203,209.365 176.203,208.864C176.203,208.072 177.1,207.834 180.031,207.834C181.615,207.834 182.566,207.94 182.962,208.204C183.12,208.309 183.173,208.388 183.279,208.784L188.031,208.784C187.925,207.279 187.688,206.619 187.028,206.091C185.972,205.194 184.414,204.93 180.163,204.93C176.889,204.93 174.698,205.114 173.695,205.511C172.216,206.065 171.53,207.227 171.53,209.154C171.53,211.821 173.008,212.93 176.546,212.982C181.14,212.982 182.302,213.009 182.935,213.062C183.622,213.141 184.018,213.484 184.018,213.986C184.018,214.883 183.146,215.147 180.11,215.147C177.18,215.147 176.282,214.83 176.203,213.748L171.45,213.748Z" style="fill:white;fill-rule:nonzero;"/>
            </g>
            <g transform="matrix(0.982415,0.186712,-0.186712,0.982415,0,0)">
                <path d="M160.335,227.235L160.335,230.113L157.88,230.113L157.88,233.466L160.335,233.466L160.335,237.109C160.335,238.139 160.335,238.773 160.362,238.984C160.415,240.409 160.679,241.096 161.339,241.756C162.263,242.654 163.477,242.918 166.461,242.918C169.682,242.918 171.107,242.522 172.058,241.334C172.771,240.409 172.956,239.644 173.008,237.268L168.731,237.268C168.731,238.561 168.705,238.667 168.546,238.957C168.335,239.406 167.807,239.591 166.857,239.591C165.959,239.591 165.484,239.406 165.246,238.984C165.035,238.667 165.008,238.482 165.008,237.109L165.008,233.466L172.401,233.466L172.401,230.113L165.008,230.113L165.008,227.235L160.335,227.235Z" style="fill:white;fill-rule:nonzero;"/>
            </g>
            <g transform="matrix(0.999324,-0.0367584,0.0367584,0.999324,0,0)">
                <path d="M125.083,276.644L137.782,276.644C143.723,276.644 145.28,276.38 146.627,275.165C147.921,273.977 148.317,272.182 148.317,267.588C148.317,264.71 148.211,263.601 147.815,262.36C147.287,260.723 146.125,259.72 144.383,259.377C142.878,259.06 142.271,259.033 137.782,259.033L125.083,259.033L125.083,276.644ZM130.363,272.155L130.363,263.443L137.782,263.443C141.056,263.443 141.769,263.548 142.323,264.182C142.851,264.763 143.036,265.74 143.036,267.905C143.036,271.891 142.693,272.155 137.835,272.155L130.363,272.155Z" style="fill:white;fill-rule:nonzero;"/>
            </g>
            <g transform="matrix(0.97584,-0.218486,0.218486,0.97584,0,0)">
                <path d="M111.208,295.118C111.023,296.226 110.469,296.438 107.485,296.438C105.796,296.438 104.819,296.279 104.317,295.91C103.868,295.566 103.736,295.144 103.736,293.877L115.934,293.877C115.961,293.349 115.961,292.768 115.961,292.609C115.961,289.784 115.538,288.385 114.429,287.461C113.294,286.537 111.815,286.273 107.591,286.273C103.525,286.273 101.967,286.537 100.753,287.382C99.433,288.306 99.063,289.547 99.063,292.9C99.063,296.094 99.433,297.335 100.647,298.259C101.783,299.104 103.499,299.421 107.116,299.421C113.796,299.421 115.512,298.576 115.855,295.118L111.208,295.118ZM103.736,291.316C103.789,289.573 104.528,289.177 107.67,289.177C109.518,289.177 110.469,289.362 110.891,289.811C111.182,290.101 111.235,290.339 111.261,291.316L103.736,291.316Z" style="fill:white;fill-rule:nonzero;"/>
            </g>
            <g transform="matrix(0.93213,-0.362123,0.362123,0.93213,0,0)">
                <path d="M71.656,300.793L77.808,313.281L83.854,313.281L90.006,300.793L84.699,300.793L80.844,309.664L76.963,300.793L71.656,300.793Z" style="fill:white;fill-rule:nonzero;"/>
            </g>
            <g transform="matrix(0.865933,-0.50016,0.50016,0.865933,0,0)">
                <path d="M51.817,310.657C47.567,310.657 45.745,310.948 44.583,311.793C43.342,312.69 42.973,313.878 42.973,316.809C42.973,320.426 43.263,321.588 44.425,322.538C45.613,323.515 47.171,323.779 51.844,323.779C56.464,323.779 58.022,323.515 59.21,322.538C60.345,321.588 60.662,320.426 60.662,316.994C60.662,313.852 60.319,312.717 59.052,311.793C57.89,310.948 56.094,310.657 51.817,310.657ZM51.844,314.169C53.164,314.169 54.273,314.301 54.854,314.538C55.725,314.882 55.989,315.489 55.989,317.179C55.989,319.819 55.382,320.268 51.844,320.268C50.339,320.268 49.283,320.136 48.702,319.872C47.857,319.528 47.646,318.974 47.646,317.311C47.646,314.644 48.279,314.169 51.844,314.169Z" style="fill:white;fill-rule:nonzero;"/>
            </g>
            <g transform="matrix(0.775292,-0.631603,0.631603,0.775292,0,0)">
                <path d="M11.952,316.754L11.952,329.243L16.625,329.243L16.625,324.253C16.625,321.956 16.731,321.375 17.312,320.768C17.866,320.187 18.79,319.949 20.507,319.949C22.249,319.949 23.147,320.134 23.648,320.636C24.15,321.111 24.229,321.56 24.229,323.566L24.229,329.243L28.902,329.243L28.902,323.566C28.902,320.134 28.665,319.183 27.53,317.995C26.421,316.86 24.889,316.438 21.906,316.438C18.87,316.438 17.444,317.045 16.599,318.655L16.361,318.655L16.361,316.754L11.952,316.754Z" style="fill:white;fill-rule:nonzero;"/>
            </g>
            <g transform="matrix(1,0,0,1,141.732,38.2678)">
                <path d="M0,206.93C-57.142,206.93 -103.465,160.607 -103.465,103.465C-103.465,46.323 -57.142,0 0,0C57.142,0 103.464,46.323 103.464,103.465C103.464,160.607 57.142,206.93 0,206.93M0,-2.834C-58.708,-2.834 -106.299,44.758 -106.299,103.465C-106.299,162.172 -58.708,209.764 0,209.764C58.707,209.764 106.299,162.172 106.299,103.465C106.299,44.758 58.707,-2.834 0,-2.834" style="fill:rgb(170,170,170);fill-rule:nonzero;"/>
            </g>
            <g transform="matrix(1,0,0,1,71.2677,49.3015)">
                <path d="M0,0.407C2.1,0.407 3.973,-1.505 3.991,-3.666C4.005,-5.415 2.922,-6.54 1.209,-6.558C-0.903,-6.579 -2.635,-4.673 -2.593,-2.374C-2.562,-0.685 -1.543,0.407 0,0.407M-23.565,3.824C-22.684,5.407 -21.336,6.371 -19.671,6.903C-17.075,7.731 -14.441,7.567 -11.818,7.058C-8.03,6.323 -4.264,5.452 -0.457,4.834C1.184,4.568 2.904,4.79 4.588,4.79C4.609,4.658 4.63,4.526 4.651,4.394C3.775,4.052 2.922,3.627 2.02,3.382C-1.875,2.325 -5.717,2.806 -9.541,3.846C-14.197,5.113 -18.864,6.048 -23.565,3.824M-20.72,3.023C-20.712,3.176 -20.705,3.328 -20.697,3.48C-19.294,3.569 -17.87,3.853 -16.494,3.703C-14.248,3.458 -12.032,2.938 -9.807,2.52C-7.479,2.083 -5.153,1.631 -2.826,1.184C-3.747,-2.906 -7.213,-6.127 -11.464,-6.776C-15.054,-7.324 -18.421,-6.916 -21.245,-4.346C-17.182,-5.088 -13.129,-6.052 -9.509,-2.537C-13.37,-0.622 -17.044,1.2 -20.72,3.023" style="fill:white;fill-rule:nonzero;"/>
            </g>
            <g transform="matrix(1,0,0,1,155.782,29.9814)">
                <path d="M0,-18.494C0.02,-20.2 -0.993,-21.475 -2.408,-21.526C-3.767,-21.575 -4.96,-20.234 -4.985,-18.631C-5.013,-16.897 -3.737,-15.329 -2.314,-15.348C-1.036,-15.365 -0.021,-16.744 0,-18.494M-9.425,2.484C-8.942,2.392 -8.764,2.404 -8.639,2.328C-5.878,0.643 -3.938,-1.756 -2.771,-4.739C-2.216,-6.16 -2.965,-7.228 -4.53,-7.471C-5.606,-7.639 -6.701,-7.696 -8.075,-7.83C-6.931,-9.181 -5.921,-10.371 -4.784,-11.712C-3.784,-10.039 -2.826,-8.587 -0.732,-9.215C1.06,-9.752 3.111,-11.64 3.314,-13.044C2.455,-12.606 1.688,-12.16 0.88,-11.814C-0.977,-11.022 -1.333,-11.116 -2.417,-12.828C-3.538,-14.598 -4.943,-15.93 -7.064,-16.389C-10.69,-17.173 -15.529,-15.288 -17.621,-12.226C-17.863,-11.871 -18.02,-11.457 -18.216,-11.07C-13.357,-14.02 -11.296,-14.691 -9.191,-13.742C-11.776,-9.823 -14.256,-5.86 -16.958,-2.055C-18.458,0.059 -20.701,1.356 -23.179,2.176C-23.562,2.302 -23.926,2.481 -24.299,2.635C-24.27,2.765 -24.241,2.895 -24.211,3.025C-23.574,3.025 -22.931,3.081 -22.301,3.016C-18.042,2.578 -14.726,0.481 -12.204,-2.898C-11.479,-3.869 -10.81,-4.643 -9.442,-4.513C-8.302,-4.405 -7.144,-4.491 -5.614,-4.491C-6.991,-1.971 -8.139,0.129 -9.425,2.484" style="fill:white;fill-rule:nonzero;"/>
            </g>
            <g transform="matrix(1,0,0,1,106.455,11.7338)">
                <path d="M0,5.276C1.136,5.245 1.994,4.068 1.999,2.535C2.004,1.015 1.113,-0.033 -0.164,-0.008C-1.368,0.015 -2.412,1.21 -2.407,2.56C-2.401,3.983 -1.226,5.309 0,5.276" style="fill:white;fill-rule:nonzero;"/>
            </g>
            <g transform="matrix(1,0,0,1,91.3678,25.7996)">
                <path d="M0,9.844C-2.764,9.844 -5.004,7.604 -5.004,4.84C-5.004,2.076 -2.764,-0.164 0,-0.164C2.764,-0.164 5.004,2.076 5.004,4.84C5.004,7.604 2.764,9.844 0,9.844M0.171,-2.037C-3.72,-2.079 -6.919,1.045 -6.927,4.894C-6.934,8.747 -3.871,11.86 -0.043,11.891C3.883,11.923 6.99,8.902 7.06,4.984C7.127,1.221 3.971,-1.996 0.171,-2.037" style="fill:white;fill-rule:nonzero;"/>
            </g>
            <g transform="matrix(1,0,0,1,102.598,25.7367)">
                <path d="M0,-4.054C0.195,-3.564 0.562,-2.89 0.977,-2.783C3.02,-2.254 5.008,-2.592 6.909,-3.401C6.893,-3.529 6.878,-3.656 6.863,-3.784C5.829,-3.836 4.794,-3.893 3.76,-3.939C2.619,-3.99 1.988,-4.498 1.907,-5.715C1.835,-6.799 1.67,-7.887 1.437,-8.949C1.104,-10.459 0.175,-11.062 -1.232,-10.484C-3.542,-9.534 -5.827,-8.491 -8.023,-7.305C-9.642,-6.431 -9.605,-4.625 -8.068,-3.564C-7.34,-3.062 -6.543,-2.651 -5.75,-2.257C-2.626,-0.703 -2.451,-0.404 -2.811,3.072C-2.84,3.353 -2.872,3.634 -2.899,3.916C-2.994,4.883 -3.086,5.849 -3.199,7.008C-2.888,6.793 -2.756,6.751 -2.713,6.665C-1.538,4.332 -0.781,1.876 -0.607,-0.74C-0.538,-1.8 -0.995,-2.611 -1.897,-3.179C-2.731,-3.703 -3.556,-4.242 -4.625,-4.929C-3.146,-5.533 -1.936,-6.027 -0.655,-6.551C-0.416,-5.6 -0.294,-4.793 0,-4.054" style="fill:white;fill-rule:nonzero;"/>
            </g>
            <g transform="matrix(1,0,0,1,109.918,25.8206)">
                <path d="M0,9.823C-2.764,9.823 -5.004,7.583 -5.004,4.819C-5.004,2.055 -2.764,-0.185 0,-0.185C2.764,-0.185 5.004,2.055 5.004,4.819C5.004,7.583 2.764,9.823 0,9.823M-0.101,-2.057C-3.905,-2.046 -7.051,1.093 -7.065,4.891C-7.081,8.748 -3.916,11.892 -0.033,11.878C3.798,11.864 6.945,8.726 6.917,4.948C6.888,1.031 3.782,-2.069 -0.101,-2.057" style="fill:white;fill-rule:nonzero;"/>
            </g>
            <g>
                <path d="M60.182,186.963L60.182,192.233L69.389,192.233L69.389,207.64L75.992,207.64L75.992,192.233L85.199,192.233L85.199,186.963L60.182,186.963Z" style="fill-rule:nonzero;"/>
                <path d="M81.695,192.977L81.695,207.64L87.182,207.64L87.182,201.564C87.182,199.301 87.337,198.495 87.864,197.782C88.391,197.1 89.414,196.728 90.654,196.728C92.917,196.728 93.537,197.317 93.537,199.487L98.714,199.487L98.714,198.495C98.714,194.093 97.226,192.605 92.793,192.605C89.724,192.605 88.174,193.318 87.151,195.178L86.872,195.178L86.872,192.977L81.695,192.977Z" style="fill-rule:nonzero;"/>
                <path d="M99.364,192.977L99.364,207.64L104.851,207.64L104.851,192.977L99.364,192.977ZM99.364,186.963L99.364,191.086L104.851,191.086L104.851,186.963L99.364,186.963Z" style="fill-rule:nonzero;"/>
                <path d="M112.042,197.565C112.197,196.232 112.6,196.108 116.537,196.108C119.854,196.108 120.288,196.418 120.288,198.712L120.288,199.487L120.04,199.487C119.172,198.557 118.428,198.34 115.886,198.34C111.856,198.34 110.43,198.433 109.097,198.805C106.958,199.363 105.966,200.82 105.966,203.455C105.966,206.927 107.485,208.012 112.352,208.012C115.917,208.012 117.312,207.888 118.211,207.516C119.203,207.113 119.792,206.586 120.257,205.625L120.474,205.625L120.474,207.64L125.744,207.64L125.744,198.805C125.744,196.139 125.434,195.023 124.504,194.031C123.264,192.791 122.148,192.574 117.343,192.574C112.941,192.574 110.399,192.853 109.128,193.442C107.423,194.279 106.71,195.426 106.555,197.565L112.042,197.565ZM115.7,201.44C118.025,201.44 118.893,201.471 119.234,201.595C119.854,201.812 120.195,202.246 120.195,202.835C120.195,204.137 119.11,204.509 115.235,204.509C112.29,204.509 111.453,204.168 111.453,202.99C111.453,201.781 112.352,201.44 115.7,201.44Z" style="fill-rule:nonzero;"/>
                <path d="M128.874,189.598L128.874,192.977L125.991,192.977L125.991,196.914L128.874,196.914L128.874,201.192C128.874,202.401 128.874,203.145 128.905,203.393C128.967,205.067 129.277,205.873 130.052,206.648C131.137,207.702 132.563,208.012 136.066,208.012C139.848,208.012 141.522,207.547 142.638,206.152C143.475,205.067 143.692,204.168 143.754,201.378L138.732,201.378C138.732,202.897 138.701,203.021 138.515,203.362C138.267,203.889 137.647,204.106 136.531,204.106C135.477,204.106 134.919,203.889 134.64,203.393C134.392,203.021 134.361,202.804 134.361,201.192L134.361,196.914L143.041,196.914L143.041,192.977L134.361,192.977L134.361,189.598L128.874,189.598Z" style="fill-rule:nonzero;"/>
                <path d="M144.404,186.963L144.404,207.64L149.891,207.64L149.891,201.378C149.891,197.472 150.666,196.697 154.541,196.697C158.137,196.697 158.788,197.286 158.788,200.479L158.788,207.64L164.275,207.64L164.275,200.479C164.275,197.038 163.934,195.705 162.663,194.403C161.392,193.101 159.563,192.574 156.308,192.574C152.836,192.574 151.038,193.349 150.139,195.209L149.891,195.209L149.891,186.963L144.404,186.963Z" style="fill-rule:nonzero;"/>
                <rect x="165.762" y="186.963" width="5.487" height="20.677" style="fill-rule:nonzero;"/>
                <path d="M182.911,192.605C177.92,192.605 175.781,192.946 174.417,193.938C172.96,194.992 172.526,196.387 172.526,199.828C172.526,204.075 172.867,205.439 174.231,206.555C175.626,207.702 177.455,208.012 182.942,208.012C188.367,208.012 190.196,207.702 191.591,206.555C192.924,205.439 193.296,204.075 193.296,200.045C193.296,196.356 192.893,195.023 191.405,193.938C190.041,192.946 187.933,192.605 182.911,192.605ZM182.942,196.728C184.492,196.728 185.794,196.883 186.476,197.162C187.499,197.565 187.809,198.278 187.809,200.262C187.809,203.362 187.096,203.889 182.942,203.889C181.175,203.889 179.935,203.734 179.253,203.424C178.261,203.021 178.013,202.37 178.013,200.417C178.013,197.286 178.757,196.728 182.942,196.728Z" style="fill-rule:nonzero;"/>
                <path d="M194.442,192.977L194.442,207.64L199.929,207.64L199.929,201.781C199.929,199.084 200.053,198.402 200.735,197.689C201.386,197.007 202.471,196.728 204.486,196.728C206.532,196.728 207.586,196.945 208.175,197.534C208.764,198.092 208.857,198.619 208.857,200.975L208.857,207.64L214.344,207.64L214.344,200.975C214.344,196.945 214.065,195.829 212.732,194.434C211.43,193.101 209.632,192.605 206.129,192.605C202.564,192.605 200.89,193.318 199.898,195.209L199.619,195.209L199.619,192.977L194.442,192.977Z" style="fill-rule:nonzero;"/>
                <path d="M123.112,223.667C123.081,226.736 122.988,226.767 116.075,226.767C109.441,226.767 109.348,226.705 109.348,221.404C109.348,218.273 109.596,217.064 110.34,216.444C110.96,215.948 112.107,215.824 116.044,215.824C120.012,215.824 121.841,216.01 122.306,216.413C122.678,216.723 122.74,217.002 122.802,218.366L129.095,218.366L129.095,217.343C129.095,214.026 128.475,212.507 126.708,211.608C125.282,210.864 123.36,210.647 117.842,210.647C107.023,210.647 104.76,211.174 103.644,213.964C103.179,215.111 103.055,216.816 103.055,221.435C103.055,224.07 103.117,225.775 103.21,226.705C103.458,228.813 104.078,229.96 105.442,230.735C107.116,231.696 109.72,231.944 117.811,231.944C122.399,231.944 124.662,231.758 126.336,231.231C128.63,230.487 129.498,228.968 129.498,225.62C129.498,225.31 129.467,224.845 129.436,223.667L123.112,223.667Z" style="fill-rule:nonzero;"/>
                <rect x="130.551" y="210.957" width="5.487" height="20.677" style="fill-rule:nonzero;"/>
                <path d="M157.396,231.634L157.396,216.971L151.909,216.971L151.909,222.861C151.909,225.589 151.723,226.364 150.948,227.046C150.266,227.635 149.274,227.852 147.321,227.852C145.244,227.852 144.407,227.666 143.756,227.046C143.167,226.488 143.012,225.806 143.012,223.667L143.012,216.971L137.525,216.971L137.525,223.667C137.525,227.666 137.804,228.782 139.137,230.146C140.47,231.479 142.268,232.006 145.678,232.006C149.367,232.006 151.103,231.293 151.94,229.433L152.219,229.433L152.219,231.634L157.396,231.634Z" style="fill-rule:nonzero;"/>
                <path d="M159.045,210.957L159.045,231.634L164.222,231.634L164.222,229.712L164.501,229.712C165.586,231.541 166.981,232.006 171.073,232.006C174.855,232.006 176.901,231.572 178.11,230.487C179.35,229.402 179.722,227.914 179.722,224.256C179.722,220.443 179.288,219.017 177.862,217.932C176.591,216.971 174.545,216.568 170.918,216.568C167.26,216.568 165.865,217.095 164.78,218.924L164.532,218.924L164.532,210.957L159.045,210.957ZM169.399,220.691C170.887,220.691 172.22,220.846 172.933,221.094C173.925,221.497 174.235,222.179 174.235,224.132C174.235,225.961 174.018,226.767 173.398,227.201C172.809,227.635 171.476,227.852 169.492,227.852C168.035,227.852 166.64,227.697 165.958,227.48C164.842,227.108 164.532,226.426 164.532,224.349C164.532,222.458 164.78,221.714 165.555,221.249C166.175,220.877 167.477,220.691 169.399,220.691Z" style="fill-rule:nonzero;"/>
            </g>
            <g transform="matrix(1,0,0,1,55.2506,63.7516)">
                <path d="M0,164.873C-11.282,154.804 -20.483,142.272 -26.952,128.429C-30.228,121.52 -32.73,114.247 -34.605,106.82C-36.441,99.381 -37.528,91.759 -37.956,84.103C-38.285,76.445 -37.969,68.754 -36.876,61.166C-35.735,53.592 -33.961,46.105 -31.375,38.909C-26.292,24.495 -18.356,11.127 -8.118,0C-17.059,12.182 -23.996,25.653 -28.413,39.891C-32.818,54.12 -34.73,69.075 -33.963,83.91C-33.624,91.329 -32.585,98.709 -30.931,105.949C-29.318,113.203 -26.97,120.285 -24.112,127.163C-18.325,140.901 -10.101,153.635 0,164.873" style="fill:white;fill-rule:nonzero;"/>
            </g>
            <g transform="matrix(1,0,0,1,164.162,225.887)">
                <path d="M0,-204.701C2.696,-204.231 5.415,-203.831 8.087,-203.199C10.779,-202.648 13.412,-201.86 16.064,-201.132C21.331,-199.54 26.492,-197.586 31.532,-195.333C41.545,-190.693 50.994,-184.725 59.397,-177.487C61.533,-175.717 63.533,-173.795 65.561,-171.9C67.503,-169.919 69.461,-167.95 71.276,-165.847C74.952,-161.69 78.408,-157.321 81.479,-152.686C87.682,-143.454 92.536,-133.335 96.052,-122.778C97.734,-117.473 99.086,-112.068 100.099,-106.597C101.033,-101.114 101.673,-95.582 101.918,-90.027C102.241,-78.927 101.367,-67.752 98.704,-56.973C98.122,-54.261 97.286,-51.614 96.531,-48.95C96.12,-47.628 95.648,-46.324 95.21,-45.012L94.536,-43.049L93.764,-41.121C91.796,-35.946 89.34,-30.976 86.684,-26.143C83.993,-21.32 80.866,-16.765 77.588,-12.354C74.265,-7.969 70.591,-3.872 66.718,0C81.197,-16.455 91.228,-36.495 95.657,-57.654C100.066,-78.803 99,-101.072 92.251,-121.54C85.625,-142.048 73.395,-160.669 57.347,-175.15C41.289,-189.625 21.41,-199.98 0,-204.701" style="fill:white;fill-rule:nonzero;"/>
            </g>
            <g transform="matrix(1,0,0,1,73.0621,148.605)">
                <path d="M0,-48.569L58.842,28.838L90.181,28.838L90.181,-72.094L70.994,-72.094L70.354,-4.554L15.99,-77.407L-23.665,-77.407L-23.665,28.079L0,28.079L0,-48.569Z" style="stroke:white;stroke-width:4px;"/>
            </g>
            <g transform="matrix(1,0,0,1,222.725,176.684)">
                <path d="M0,-129.322L3.198,-5.313L-53.725,0L-51.167,-108.073L-78.029,-107.314L-74.191,-120.974L0,-129.322Z" style="fill:rgb(170,170,170);fill-rule:nonzero;stroke:white;stroke-width:4px;"/>
            </g>
            <g transform="matrix(1,0,0,1,164.523,42.1002)">
                <path d="M0,4.809L7.035,-9.61C-20.042,-11.383 -32.407,-2.276 -39.015,16.192C-28.355,4.68 -16.843,0.633 0,4.809Z" style="stroke:white;stroke-width:4px;"/>
            </g>
            <g transform="matrix(1,0,0,1,73.0621,148.605)">
                <path d="M0,-48.569L58.842,28.838L90.181,28.838L90.181,-72.094L70.994,-72.094L70.354,-4.554L15.99,-77.407L-23.665,-77.407L-23.665,28.079L0,28.079L0,-48.569Z"/>
            </g>
            <g transform="matrix(1,0,0,1,222.725,176.684)">
                <path d="M0,-129.322L3.198,-5.313L-53.725,0L-51.167,-108.073L-78.029,-107.314L-74.191,-120.974L0,-129.322Z" style="fill:rgb(170,170,170);fill-rule:nonzero;"/>
            </g>
            <g transform="matrix(1,0,0,1,164.523,42.1002)">
                <path d="M0,4.809L7.035,-9.61C-20.042,-11.383 -32.407,-2.276 -39.015,16.192C-28.355,4.68 -16.843,0.633 0,4.809"/>
            </g>
        </g>
    </g>
</svg>
