<svg width="300" height="300" viewBox="0 0 300 300" fill="none" xmlns="http://www.w3.org/2000/svg">
<g id="N1 Tri Logo1 1">
<g id="Rings">
<g id="Black_Ring">
<path id="Vector" d="M149.803 266.144C85.52 266.144 33.4089 214.056 33.4089 149.803C33.4089 85.5489 85.52 33.4614 149.803 33.4614C214.085 33.4614 266.196 85.5489 266.196 149.803C266.196 214.056 214.085 266.144 149.803 266.144ZM149.803 5.53894C70.1279 5.53894 5.53894 70.1279 5.53894 149.803C5.53894 229.476 70.1279 294.066 149.803 294.066C229.476 294.066 294.065 229.476 294.065 149.803C294.065 70.1279 229.476 5.53894 149.803 5.53894Z" fill="black"/>
</g>
<g id="Outer_Grey_Ring">
<path id="Vector_2" d="M149.802 296.58C68.7461 296.58 3.03751 230.865 3.03751 149.801C3.03751 68.7364 68.7461 3.02036 149.802 3.02036C230.858 3.02036 296.566 68.7364 296.566 149.801C296.566 230.865 230.858 296.58 149.802 296.58ZM149.802 0C67.0682 0 0 67.0682 0 149.801C0 232.533 67.0682 299.599 149.802 299.599C232.535 299.599 299.603 232.533 299.603 149.801C299.603 67.0682 232.535 0 149.802 0Z" fill="#AAAAAA"/>
</g>
<g id="Inner_Grey_Ring">
<path id="Vector_3" d="M149.803 260.654C88.5798 260.654 38.948 211.022 38.948 149.799C38.948 88.5752 88.5798 38.9434 149.803 38.9434C211.027 38.9434 260.658 88.5752 260.658 149.799C260.658 211.022 211.027 260.654 149.803 260.654ZM149.803 35.907C86.9019 35.907 35.9116 86.8984 35.9116 149.799C35.9116 212.699 86.9019 263.691 149.803 263.691C212.704 263.691 263.695 212.699 263.695 149.799C263.695 86.8984 212.704 35.907 149.803 35.907Z" fill="#AAAAAA"/>
</g>
<g id="Brackets">
<g id="Group">
<path id="Vector_4" d="M57.1419 242.897C45.054 232.109 35.1958 218.682 28.2648 203.85C24.7548 196.448 22.074 188.655 20.0651 180.698C18.098 172.727 16.9333 164.561 16.4748 156.358C16.1223 148.153 16.4608 139.913 17.6319 131.783C18.8544 123.668 20.7551 115.646 23.5258 107.936C28.9719 92.4922 37.4748 78.1693 48.444 66.2476C38.8644 79.2997 31.4319 93.7329 26.6994 108.988C21.9798 124.233 19.9312 140.256 20.753 156.151C21.1162 164.1 22.2294 172.007 24.0015 179.764C25.7298 187.536 28.2455 195.124 31.3076 202.494C37.508 217.213 46.3194 230.856 57.1419 242.897Z" fill="white"/>
</g>
<g id="Group_2">
<path id="Vector_5" d="M173.836 20.6451C176.724 21.1487 179.638 21.5773 182.5 22.2544C185.385 22.8448 188.206 23.6891 191.047 24.4691C196.69 26.1748 202.22 28.2684 207.62 30.6823C218.348 35.6537 228.472 42.048 237.475 49.803C239.764 51.6994 241.907 53.7587 244.08 55.7891C246.16 57.9116 248.258 60.0212 250.203 62.2744C254.141 66.7284 257.844 71.4094 261.135 76.3755C267.781 86.2669 272.981 97.1087 276.749 108.42C278.551 114.104 279.999 119.895 281.085 125.757C282.085 131.631 282.771 137.558 283.034 143.51C283.38 155.403 282.443 167.376 279.59 178.925C278.966 181.831 278.071 184.667 277.262 187.521C276.821 188.938 276.316 190.335 275.846 191.74L275.124 193.844L274.297 195.909C272.189 201.454 269.557 206.779 266.711 211.957C263.828 217.125 260.478 222.005 256.966 226.731C253.405 231.429 249.469 235.819 245.319 239.968C260.833 222.337 271.58 200.866 276.325 178.195C281.049 155.536 279.907 131.676 272.676 109.746C265.577 87.7734 252.473 67.8223 235.279 52.3069C218.074 36.798 196.775 25.7034 173.836 20.6451Z" fill="white"/>
</g>
</g>
</g>
<g id="Athletes">
<g id="Swimmer">
<path id="Vector_6" d="M74.3022 51.2012C76.5522 51.2012 78.559 49.1526 78.5782 46.8373C78.5932 44.9633 77.4329 43.758 75.5975 43.7387C73.3347 43.7162 71.479 45.7583 71.524 48.2215C71.5572 50.0312 72.649 51.2012 74.3022 51.2012ZM49.054 54.8623C49.9979 56.5583 51.4422 57.5912 53.2261 58.1612C56.0075 59.0483 58.8297 58.8726 61.64 58.3273C65.6986 57.5398 69.7336 56.6065 73.8125 55.9444C75.5707 55.6594 77.4136 55.8973 79.2179 55.8973C79.2404 55.7558 79.2629 55.6144 79.2854 55.473C78.3468 55.1065 77.4329 54.6512 76.4665 54.3887C72.2932 53.2562 68.1768 53.7715 64.0797 54.8858C59.0911 56.2433 54.0907 57.2451 49.054 54.8623ZM52.1022 54.004C52.1107 54.168 52.1182 54.3308 52.1268 54.4937C53.63 54.589 55.1557 54.8933 56.63 54.7326C59.0365 54.4701 61.4107 53.913 63.7947 53.4651C66.289 52.9969 68.7811 52.5126 71.2743 52.0337C70.2875 47.6515 66.574 44.2005 62.0193 43.5051C58.1729 42.918 54.5654 43.3551 51.5397 46.1087C55.8929 45.3137 60.2354 44.2808 64.114 48.0469C59.9772 50.0987 56.0407 52.0508 52.1022 54.004Z" fill="white"/>
</g>
<g id="Runner">
<path id="Vector_7" d="M164.856 10.2537C164.877 8.42589 163.792 7.05982 162.276 7.00518C160.82 6.95268 159.542 8.38946 159.515 10.107C159.485 11.9648 160.852 13.6448 162.377 13.6245C163.746 13.6062 164.834 12.1287 164.856 10.2537ZM154.758 32.7302C155.275 32.6316 155.466 32.6445 155.6 32.563C158.558 30.7577 160.637 28.1873 161.887 24.9912C162.482 23.4688 161.679 22.3245 160.002 22.0641C158.85 21.8841 157.676 21.823 156.204 21.6795C157.43 20.232 158.512 18.957 159.73 17.5202C160.802 19.3127 161.828 20.8684 164.072 20.1955C165.992 19.6202 168.189 17.5973 168.407 16.093C167.486 16.5623 166.665 17.0402 165.799 17.4109C163.809 18.2595 163.428 18.1587 162.266 16.3245C161.065 14.428 159.56 13.0009 157.287 12.5091C153.402 11.6691 148.218 13.6887 145.976 16.9695C145.717 17.3498 145.549 17.7934 145.339 18.208C150.545 15.0473 152.753 14.3284 155.009 15.3452C152.239 19.5441 149.582 23.7902 146.687 27.867C145.08 30.132 142.676 31.5216 140.021 32.4002C139.611 32.5352 139.221 32.727 138.821 32.892C138.852 33.0312 138.884 33.1705 138.916 33.3098C139.598 33.3098 140.287 33.3698 140.962 33.3002C145.525 32.8309 149.078 30.5841 151.78 26.9637C152.557 25.9234 153.274 25.0941 154.74 25.2334C155.961 25.3491 157.202 25.257 158.841 25.257C157.366 27.957 156.136 30.207 154.758 32.7302Z" fill="white"/>
</g>
<g id="Cyslist">
<g id="Group_3">
<path id="Vector_8" d="M112.003 16.1676C113.22 16.1344 114.139 14.8733 114.145 13.2308C114.15 11.6022 113.195 10.4794 111.827 10.5061C110.537 10.5308 109.418 11.8111 109.424 13.2576C109.43 14.7822 110.689 16.2029 112.003 16.1676Z" fill="white"/>
</g>
<g id="Group_4">
<path id="Vector_9" d="M95.8389 36.1355C92.8774 36.1355 90.4774 33.7355 90.4774 30.7741C90.4774 27.8127 92.8774 25.4127 95.8389 25.4127C98.8003 25.4127 101.2 27.8127 101.2 30.7741C101.2 33.7355 98.8003 36.1355 95.8389 36.1355ZM96.0221 23.4059C91.8531 23.3609 88.4256 26.708 88.4171 30.832C88.4096 34.9602 91.6914 38.2955 95.7928 38.3288C99.9992 38.363 103.328 35.1263 103.403 30.9284C103.475 26.8966 100.093 23.4498 96.0221 23.4059Z" fill="white"/>
</g>
<g id="Group_5">
<path id="Vector_10" d="M107.873 21.1744C108.081 21.6994 108.475 22.4216 108.919 22.5362C111.108 23.103 113.238 22.7409 115.275 21.8741C115.258 21.7369 115.242 21.6009 115.226 21.4637C114.118 21.408 113.009 21.3469 111.901 21.2977C110.679 21.243 110.003 20.6987 109.916 19.3948C109.839 18.2334 109.662 17.0677 109.412 15.9298C109.055 14.3119 108.06 13.6659 106.553 14.2852C104.078 15.303 101.629 16.4205 99.2765 17.6912C97.5418 18.6277 97.5815 20.5627 99.2282 21.6994C100.008 22.2373 100.862 22.6777 101.712 23.0998C105.059 24.7648 105.246 25.0852 104.861 28.8094C104.83 29.1105 104.795 29.4116 104.766 29.7137C104.665 30.7498 104.566 31.7848 104.445 33.0266C104.778 32.7962 104.92 32.7512 104.966 32.6591C106.225 30.1594 107.036 27.528 107.222 24.7252C107.296 23.5894 106.806 22.7205 105.84 22.1119C104.946 21.5505 104.063 20.973 102.917 20.2369C104.502 19.5898 105.798 19.0605 107.171 18.4991C107.427 19.518 107.558 20.3827 107.873 21.1744Z" fill="white"/>
</g>
<g id="Group_6">
<path id="Vector_11" d="M115.716 36.1341C112.755 36.1341 110.355 33.7341 110.355 30.7726C110.355 27.8112 112.755 25.4112 115.716 25.4112C118.678 25.4112 121.078 27.8112 121.078 30.7726C121.078 33.7341 118.678 36.1341 115.716 36.1341ZM115.608 23.4055C111.532 23.4173 108.162 26.7805 108.147 30.8498C108.13 34.9823 111.521 38.3509 115.681 38.3359C119.786 38.3209 123.157 34.9587 123.127 30.9109C123.096 26.7141 119.769 23.3926 115.608 23.4055Z" fill="white"/>
</g>
</g>
</g>
<g id="Text">
<g id="East_Devon">
<g id="Group_7">
<path id="Vector_12" d="M68.5181 238.98L57.0157 253.936L73.6536 266.732L76.4126 263.145L64.259 253.798L66.0873 251.42L77.5453 260.232L80.0802 256.936L68.6222 248.124L70.295 245.949L82.3586 255.227L85.066 251.707L68.5181 238.98Z" fill="white"/>
</g>
<g id="Group_8">
<path id="Vector_13" d="M85.6461 262.837C86.3416 261.83 86.7203 261.902 89.8928 263.588C92.5657 265.008 92.7821 265.444 91.7998 267.292L91.468 267.917L91.2683 267.811C90.9673 266.69 90.4604 266.196 88.412 265.108C85.1648 263.382 83.9759 262.848 82.7422 262.575C80.78 262.11 79.3566 262.86 78.2284 264.983C76.7418 267.781 77.5007 269.305 81.4225 271.389C84.296 272.916 85.4733 273.413 86.3575 273.498C87.3285 273.598 88.0292 273.425 88.8151 272.85L88.9901 272.943L88.1274 274.567L92.3738 276.823L96.1569 269.703C97.2981 267.555 97.5264 266.523 97.2014 265.326C96.7336 263.795 95.9272 263.144 92.0546 261.086C88.5075 259.201 86.3399 258.337 85.0638 258.268C83.3315 258.213 82.2651 258.831 81.2247 260.488L85.6461 262.837ZM86.9348 267.527C88.8082 268.522 89.4943 268.919 89.7164 269.165C90.1234 269.605 90.2118 270.101 89.9594 270.576C89.4019 271.625 88.3688 271.459 85.2465 269.8C82.8735 268.539 82.3447 267.907 82.8489 266.958C83.3667 265.983 84.2363 266.093 86.9348 267.527Z" fill="white"/>
</g>
<g id="Group_9">
<path id="Vector_14" d="M97.1161 274.272C96.6372 275.752 96.6547 276.745 97.1901 277.708C97.9545 279.138 99.4409 279.949 104.041 281.532C111.37 284.054 113.368 283.814 114.611 280.203C115.587 277.368 114.564 275.819 110.908 274.531C106.05 272.829 105.229 272.517 104.473 272.196C103.741 271.885 103.46 271.489 103.634 270.981C103.91 270.179 104.902 270.25 107.872 271.272C109.476 271.824 110.403 272.263 110.712 272.669C110.836 272.83 110.862 272.929 110.831 273.367L115.645 275.024C116.063 273.462 116.053 272.711 115.568 271.946C114.811 270.669 113.325 269.858 109.018 268.376C105.701 267.235 103.417 266.657 102.263 266.71C100.571 266.755 99.4709 267.693 98.799 269.645C97.8691 272.347 98.9798 273.986 102.546 275.273C107.2 276.874 108.368 277.307 108.991 277.581C109.659 277.901 109.941 278.386 109.766 278.895C109.453 279.804 108.478 279.767 105.402 278.709C102.433 277.687 101.634 277.053 101.931 275.929L97.1161 274.272Z" fill="white"/>
</g>
<g id="Group_10">
<path id="Vector_15" d="M121.255 269.203L120.679 272.232L118.095 271.741L117.424 275.271L120.008 275.762L119.279 279.596C119.073 280.68 118.947 281.348 118.933 281.575C118.704 283.086 118.844 283.862 119.407 284.688C120.2 285.819 121.425 286.339 124.566 286.936C127.956 287.581 129.535 287.449 130.774 286.389C131.709 285.558 132.057 284.789 132.587 282.299L128.085 281.443C127.827 282.804 127.778 282.911 127.553 283.184C127.241 283.614 126.648 283.704 125.648 283.513C124.703 283.334 124.24 283.044 124.074 282.552C123.915 282.176 123.924 281.976 124.198 280.531L124.927 276.696L132.709 278.175L133.38 274.646L125.598 273.167L126.173 270.138L121.255 269.203Z" fill="white"/>
</g>
<g id="Group_11">
<path id="Vector_16" d="M142.77 289.221L156.367 288.72C162.728 288.487 164.384 288.143 165.779 286.789C167.117 285.466 167.471 283.528 167.29 278.609C167.176 275.528 167.019 274.345 166.546 273.031C165.917 271.299 164.633 270.271 162.754 269.973C161.13 269.692 160.479 269.687 155.673 269.864L142.076 270.364L142.77 289.221ZM148.246 284.206L147.903 274.878L155.847 274.586C159.352 274.457 160.12 274.541 160.738 275.198C161.326 275.8 161.563 276.839 161.648 279.157C161.805 283.424 161.448 283.721 156.247 283.912L148.246 284.206Z" fill="white"/>
</g>
<g id="Group_12">
<path id="Vector_17" d="M183.304 280.468C183.369 281.67 182.84 282.021 179.72 282.72C177.954 283.115 176.895 283.177 176.284 282.909C175.734 282.655 175.497 282.244 175.201 280.92L187.954 278.064C187.859 277.506 187.723 276.898 187.686 276.732C187.024 273.778 186.255 272.415 184.879 271.708C183.476 271.008 181.868 271.078 177.451 272.067C173.2 273.019 171.633 273.659 170.561 274.827C169.398 276.102 169.301 277.486 170.086 280.992C170.834 284.331 171.511 285.542 172.997 286.224C174.382 286.842 176.251 286.771 180.032 285.925C187.017 284.361 188.613 283.076 188.162 279.38L183.304 280.468ZM174.601 278.242C174.249 276.407 174.929 275.82 178.214 275.085C180.146 274.652 181.183 274.623 181.73 274.993C182.102 275.228 182.213 275.465 182.469 276.48L174.601 278.242Z" fill="white"/>
</g>
<g id="Group_13">
<path id="Vector_18" d="M186.214 270.547L197.203 280.632L203.241 278.287L204.54 263.428L199.24 265.487L198.832 275.842L191.514 268.488L186.214 270.547Z" fill="white"/>
</g>
<g id="Group_14">
<path id="Vector_19" d="M212.496 258.397C208.553 260.674 207.019 261.921 206.393 263.327C205.723 264.825 206.017 266.125 207.588 268.844C209.526 272.2 210.418 273.122 212.005 273.381C213.631 273.651 215.218 273.061 219.553 270.557C223.839 268.081 225.143 267.001 225.722 265.458C226.266 263.968 225.937 262.721 224.098 259.536C222.415 256.621 221.488 255.752 219.817 255.574C218.286 255.412 216.464 256.105 212.496 258.397ZM214.403 261.641C215.628 260.933 216.728 260.462 217.394 260.37C218.386 260.223 218.956 260.644 219.862 262.212C221.277 264.662 220.954 265.403 217.672 267.299C216.275 268.106 215.225 268.549 214.544 268.616C213.576 268.749 213.083 268.348 212.192 266.806C210.763 264.331 211.096 263.551 214.403 261.641Z" fill="white"/>
</g>
<g id="Group_15">
<path id="Vector_20" d="M222.229 252.976L230.681 263.35L234.563 260.187L231.186 256.042C229.631 254.134 229.326 253.58 229.398 252.683C229.465 251.825 230.071 251.002 231.498 249.84C232.945 248.661 233.816 248.207 234.572 248.285C235.31 248.34 235.68 248.66 237.037 250.326L240.879 255.042L244.761 251.879L240.919 247.164C238.596 244.313 237.756 243.683 236.009 243.464C234.32 243.272 232.762 243.958 230.284 245.977C227.762 248.031 226.988 249.501 227.376 251.41L227.178 251.571L225.892 249.992L222.229 252.976Z" fill="white"/>
</g>
</g>
<g id="Triathlon_Club">
<path id="Vector_21" d="M62.4252 198.262V203.908H72.2899V220.416H79.3645V203.908H89.2292V198.262H62.4252Z" fill="black"/>
<path id="Vector_22" d="M85.4736 204.708V220.418H91.3526V213.908C91.3526 211.483 91.5186 210.62 92.0833 209.856C92.6479 209.125 93.744 208.727 95.0726 208.727C97.4972 208.727 98.1615 209.358 98.1615 211.683H103.708V210.62C103.708 205.903 102.114 204.309 97.3644 204.309C94.0761 204.309 92.4154 205.073 91.3194 207.066H91.0204V204.708H85.4736Z" fill="black"/>
<path id="Vector_23" d="M104.407 204.706V220.416H110.286V204.706H104.407ZM104.407 198.262V202.68H110.286V198.262H104.407Z" fill="black"/>
<path id="Vector_24" d="M117.989 209.62C118.155 208.192 118.587 208.059 122.805 208.059C126.359 208.059 126.824 208.391 126.824 210.849V211.679H126.558C125.628 210.683 124.831 210.45 122.108 210.45C117.79 210.45 116.262 210.55 114.834 210.949C112.542 211.546 111.479 213.107 111.479 215.931C111.479 219.651 113.107 220.813 118.321 220.813C122.141 220.813 123.636 220.68 124.599 220.282C125.662 219.85 126.293 219.285 126.791 218.256H127.023V220.415H132.67V210.949C132.67 208.092 132.338 206.896 131.341 205.834C130.013 204.505 128.817 204.272 123.669 204.272C118.952 204.272 116.229 204.571 114.867 205.202C113.04 206.099 112.276 207.328 112.11 209.62H117.989ZM121.908 213.772C124.4 213.772 125.33 213.805 125.695 213.938C126.359 214.17 126.725 214.635 126.725 215.266C126.725 216.661 125.562 217.06 121.41 217.06C118.255 217.06 117.358 216.695 117.358 215.432C117.358 214.137 118.321 213.772 121.908 213.772Z" fill="black"/>
<path id="Vector_25" d="M136.023 201.086V204.707H132.935V208.925H136.023V213.509C136.023 214.804 136.024 215.601 136.057 215.867C136.123 217.66 136.455 218.524 137.286 219.354C138.448 220.484 139.976 220.816 143.729 220.816C147.781 220.816 149.575 220.317 150.771 218.823C151.667 217.66 151.9 216.697 151.966 213.708H146.586C146.586 215.335 146.552 215.468 146.353 215.834C146.087 216.398 145.423 216.631 144.227 216.631C143.098 216.631 142.5 216.398 142.201 215.867C141.936 215.468 141.902 215.236 141.902 213.509V208.925H151.202V204.707H141.902V201.086H136.023Z" fill="black"/>
<path id="Vector_26" d="M152.664 198.262V220.416H158.543V213.707C158.543 209.522 159.373 208.691 163.525 208.691C167.378 208.691 168.076 209.322 168.076 212.743V220.416H173.955V212.743C173.955 209.057 173.589 207.628 172.227 206.233C170.866 204.838 168.906 204.274 165.418 204.274C161.698 204.274 159.772 205.104 158.809 207.097H158.543V198.262H152.664Z" fill="black"/>
<path id="Vector_27" d="M181.427 198.262H175.548V220.416H181.427V198.262Z" fill="black"/>
<path id="Vector_28" d="M193.921 204.309C188.573 204.309 186.282 204.674 184.82 205.737C183.259 206.867 182.794 208.361 182.794 212.048C182.794 216.598 183.16 218.06 184.621 219.255C186.116 220.484 188.075 220.817 193.954 220.817C199.767 220.817 201.726 220.484 203.221 219.255C204.649 218.06 205.048 216.598 205.048 212.28C205.048 208.328 204.616 206.9 203.022 205.737C201.56 204.674 199.302 204.309 193.921 204.309ZM193.954 208.727C195.615 208.727 197.01 208.893 197.741 209.192C198.837 209.623 199.169 210.387 199.169 212.513C199.169 215.834 198.405 216.399 193.954 216.399C192.061 216.399 190.732 216.233 190.002 215.901C188.939 215.469 188.673 214.772 188.673 212.679C188.673 209.324 189.47 208.727 193.954 208.727Z" fill="black"/>
<path id="Vector_29" d="M206.277 204.708V220.418H212.156V214.141C212.156 211.251 212.289 210.52 213.02 209.756C213.717 209.025 214.88 208.727 217.039 208.727C219.231 208.727 220.36 208.959 220.991 209.59C221.622 210.188 221.722 210.753 221.722 213.277V220.418H227.601V213.277C227.601 208.959 227.302 207.763 225.874 206.269C224.479 204.841 222.552 204.309 218.799 204.309C214.98 204.309 213.186 205.073 212.123 207.099H211.824V204.708H206.277Z" fill="black"/>
<path id="Vector_30" d="M129.851 237.586C129.818 240.874 129.719 240.907 122.312 240.907C115.204 240.907 115.104 240.841 115.104 235.161C115.104 231.807 115.37 230.511 116.167 229.847C116.831 229.316 118.06 229.183 122.279 229.183C126.53 229.183 128.49 229.382 128.988 229.814C129.386 230.146 129.453 230.445 129.519 231.906H136.262V230.81C136.262 227.256 135.598 225.629 133.704 224.666C132.176 223.868 130.117 223.636 124.205 223.636C112.613 223.636 110.189 224.201 108.993 227.19C108.495 228.419 108.362 230.246 108.362 235.194C108.362 238.018 108.428 239.844 108.528 240.841C108.794 243.099 109.458 244.328 110.919 245.159C112.713 246.188 115.503 246.454 124.172 246.454C129.088 246.454 131.512 246.255 133.306 245.69C135.764 244.893 136.694 243.266 136.694 239.678C136.694 239.346 136.66 238.848 136.627 237.586H129.851Z" fill="black"/>
<path id="Vector_31" d="M143.698 223.97H137.819V246.124H143.698V223.97Z" fill="black"/>
<path id="Vector_32" d="M166.585 246.126V230.415H160.706V236.726C160.706 239.649 160.506 240.479 159.676 241.21C158.945 241.841 157.882 242.074 155.79 242.074C153.565 242.074 152.668 241.874 151.97 241.21C151.339 240.612 151.173 239.881 151.173 237.59V230.415H145.294V237.59C145.294 241.874 145.593 243.07 147.021 244.531C148.45 245.96 150.376 246.524 154.03 246.524C157.982 246.524 159.842 245.76 160.739 243.767H161.038V246.126H166.585Z" fill="black"/>
<path id="Vector_33" d="M168.352 223.97V246.124H173.899V244.065H174.197C175.36 246.024 176.855 246.523 181.239 246.523C185.291 246.523 187.483 246.058 188.779 244.895C190.107 243.733 190.506 242.138 190.506 238.219C190.506 234.134 190.041 232.606 188.513 231.443C187.151 230.414 184.959 229.982 181.073 229.982C177.154 229.982 175.659 230.546 174.496 232.506H174.231V223.97H168.352ZM179.445 234.399C181.04 234.399 182.468 234.565 183.232 234.831C184.295 235.263 184.627 235.994 184.627 238.086C184.627 240.046 184.394 240.909 183.73 241.374C183.099 241.839 181.671 242.072 179.545 242.072C177.984 242.072 176.489 241.906 175.759 241.673C174.563 241.275 174.231 240.544 174.231 238.319C174.231 236.293 174.496 235.495 175.327 234.997C175.991 234.599 177.386 234.399 179.445 234.399Z" fill="black"/>
</g>
<g id="N1">
<g id="N">
<g id="Group_16">
<path id="Vector_34" fill-rule="evenodd" clip-rule="evenodd" d="M76.2266 105.124L139.272 188.06H172.849V79.9189H152.292L151.606 152.283L93.3588 74.2264H50.8713V187.247H76.2266V105.124Z" fill="black" stroke="white" stroke-width="4" stroke-miterlimit="10"/>
</g>
<g id="Group_17">
<path id="Vector_35" fill-rule="evenodd" clip-rule="evenodd" d="M76.2266 105.124L139.272 188.06H172.849V79.9189H152.292L151.606 152.283L93.3588 74.2264H50.8713V187.247H76.2266V105.124Z" fill="black"/>
</g>
</g>
<g id="1">
<g id="Group_18">
<path id="Vector_36" d="M236.578 48.6877L240.004 181.555L179.015 187.247L181.756 71.4545L152.975 72.2677L157.088 57.632L236.578 48.6877Z" fill="#AAAAAA" stroke="white" stroke-width="4" stroke-miterlimit="10"/>
</g>
<g id="Group_19">
<path id="Vector_37" d="M236.578 48.6877L240.004 181.555L179.015 187.247L181.756 71.4545L152.975 72.2677L157.088 57.632L236.578 48.6877Z" fill="#AAAAAA"/>
</g>
</g>
<g id="Accent">
<g id="Group_20">
<path id="Vector_38" fill-rule="evenodd" clip-rule="evenodd" d="M174.219 48.2015L181.757 32.7526C152.746 30.8529 139.497 40.6104 132.417 60.3976C143.839 48.0633 156.173 43.7272 174.219 48.2015Z" fill="black" stroke="white" stroke-width="0.0142857" stroke-miterlimit="10"/>
</g>
<g id="Group_21">
<path id="Vector_39" fill-rule="evenodd" clip-rule="evenodd" d="M174.219 48.2015L181.757 32.7526C152.746 30.8529 139.497 40.6104 132.417 60.3976C143.839 48.0633 156.173 43.7272 174.219 48.2015Z" fill="black"/>
</g>
</g>
</g>
</g>
</g>
</svg>
